<svg xmlns="http://www.w3.org/2000/svg" viewBox="0 0 200 231" width="200" height="231" role="img" aria-label="Projects tile">
<title>Projects tile</title>
<path d="M97.5,2.7 Q147.0,30.4 197.9,59.2 Q201.3,116.5 202.0,174.7 Q150.6,203.2 98.8,230.0 Q50.9,200.3 1.3,176.0 Q-0.5,118.2 1.0,58.0 Q49.7,32.4 97.5,2.7 Z" fill="#3F6B3A" fill-opacity="0.55" stroke="#2E2823" stroke-width="3" stroke-linejoin="round"/>
<path d="M98.8,-1.4 Q149.5,27.2 200.2,59.4 Q200.1,114.6 198.6,172.9 Q148.7,202.8 100.2,232.0 Q51.8,201.3 0.4,171.3 Q-1.5,112.9 -1.5,55.9 Q49.9,27.8 98.8,-1.4 Z" fill="none" stroke="#2E2823" stroke-width="1.4" stroke-linejoin="round" opacity="0.45"/>
<g fill="none" stroke="#2E2823" stroke-width="2.6" stroke-linecap="round" stroke-linejoin="round">
<polygon points="45,130 72,67 99,130"/>
<line x1="72" y1="130" x2="72" y2="152"/>
<polygon points="78,152 115,57 152,152"/>
<line x1="115" y1="152" x2="115" y2="178"/>
<polygon points="132,132 158,71 184,132"/>
<line x1="158" y1="132" x2="158" y2="154"/>
<rect x="42" y="174" width="62" height="21" rx="10" fill="#F4EDE0"/>
<circle cx="53" cy="184" r="7"/>
<rect x="92" y="190" width="46" height="18" rx="9" fill="#F4EDE0"/>
<circle cx="103" cy="199" r="6"/>
</g>
</svg>
